<svg width="8" height="8" viewBox="0 0 8 8" fill="none" xmlns="http://www.w3.org/2000/svg">
<path d="M4.00738 0.540472C3.03492 0.542899 2.10437 0.931509 1.42048 1.62083C0.736589 2.31016 0.355184 3.24372 0.360401 4.21613C0.365619 5.18865 0.756992 6.12029 1.4483 6.80626C2.13961 7.49224 3.0743 7.87611 4.04672 7.87369C5.01914 7.87126 5.94973 7.48265 6.63382 6.79333C7.31775 6.104 7.69904 5.17043 7.69382 4.19783C7.68752 3.22579 7.29585 2.29476 6.60476 1.60909C5.91367 0.923414 4.97961 0.539078 4.00752 0.540412L4.00738 0.540472ZM4.59632 6.76061L4.59631 6.76053C4.59647 6.79014 4.58485 6.81862 4.56403 6.83959C4.54322 6.86057 4.51491 6.87242 4.48531 6.8725L3.59749 6.87471C3.56788 6.87478 3.53937 6.86308 3.51833 6.8422C3.4973 6.82133 3.48536 6.79291 3.4852 6.76331L3.46733 3.43102C3.46717 3.40141 3.4788 3.37302 3.49961 3.35204C3.52042 3.33098 3.5488 3.31921 3.57841 3.31914L4.46623 3.31692C4.49584 3.31685 4.52427 3.32848 4.54531 3.34943C4.56634 3.3703 4.57828 3.39864 4.57844 3.42825L4.59632 6.76061ZM4.01871 2.65155L4.0187 2.65147C3.87137 2.65184 3.72976 2.59368 3.62503 2.48977C3.52023 2.38579 3.46096 2.24465 3.46017 2.09731C3.45938 1.94997 3.51713 1.80853 3.62082 1.70411C3.72443 1.59961 3.8654 1.54074 4.01274 1.54037C4.16008 1.54 4.30169 1.59817 4.40649 1.70215C4.51122 1.80605 4.57049 1.9472 4.57128 2.09454C4.57207 2.24187 4.51432 2.38331 4.41071 2.48781C4.30702 2.59224 4.16605 2.6511 4.0187 2.65147L4.01871 2.65155Z" fill="#6E56CF"/>
</svg>
